<?xml version="1.0" encoding="UTF-8" standalone="no"?>
<svg
   width="500.00000000000006"
   height="135"
   xml:space="preserve"
   enable-background="new 0 0 500 135"
   version="1.1"
   id="svg1"
   sodipodi:docname="LingvoPal_logo.svg"
   inkscape:version="1.4.3 (0d15f75042, 2025-12-25)"
   xmlns:inkscape="http://www.inkscape.org/namespaces/inkscape"
   xmlns:sodipodi="http://sodipodi.sourceforge.net/DTD/sodipodi-0.dtd"
   xmlns="http://www.w3.org/2000/svg"
   xmlns:svg="http://www.w3.org/2000/svg"><defs
   id="defs1" /><sodipodi:namedview
   id="namedview1"
   pagecolor="#ffffff"
   bordercolor="#000000"
   borderopacity="0.25"
   inkscape:showpageshadow="2"
   inkscape:pageopacity="0.0"
   inkscape:pagecheckerboard="0"
   inkscape:deskcolor="#d1d1d1"
   inkscape:zoom="1.778"
   inkscape:cx="250"
   inkscape:cy="202.75591"
   inkscape:window-width="1896"
   inkscape:window-height="1146"
   inkscape:window-x="0"
   inkscape:window-y="0"
   inkscape:window-maximized="1"
   inkscape:current-layer="g1" />
 <g
   id="g1">
  <title
   id="title1">Layer 1</title>
  <path
   id="svg_158"
   fill="#FDFFFE" />
  <path
   id="svg_186"
   d="m25.05574,30.84668c3.82174,-0.00296 7.16372,-0.18409 10.48069,0.02716c6.97721,0.44438 13.37254,-0.00778 18.65818,-5.7594c3.78865,-4.12264 8.49465,-2.7138 11.89701,0.91066c3.94608,4.20366 8.4948,5.16409 13.93627,4.88867c6.47808,-0.32787 12.98645,-0.13793 19.48014,-0.0528c5.95644,0.07808 8.54264,2.62849 8.56283,8.54554c0.05,14.65465 -0.00906,29.30965 -0.00836,43.9645c0.00024,5.08193 -2.42979,7.95716 -7.45707,9.02512c-6.47781,1.37607 -13.26943,2.21825 -19.22035,4.87232c-6.25305,2.78881 -11.93606,7.11348 -17.36128,11.40745c-3.44853,2.72947 -5.96181,3.05899 -9.0402,-0.00502c-9.46109,-9.41688 -20.97736,-14.3593 -34.17405,-15.77723c-8.01842,-0.86155 -9.95886,-3.17565 -9.97094,-11.26959c-0.01988,-13.32258 -0.00923,-26.64522 0.00914,-39.9678c0.01255,-9.10155 1.71039,-10.79847 10.71939,-10.81456c0.99916,-0.00178 1.99833,0.00289 3.4886,0.00498m25.37826,7.6941c-8.65798,0.06215 -17.32233,0.34383 -25.97124,0.09309c-4.27342,-0.12389 -5.84726,0.95935 -5.71771,5.52042c0.32149,11.31809 0.3779,22.66137 -0.02499,33.97439c-0.18194,5.10884 1.60264,7.12158 6.48608,7.7562c10.22121,1.32827 19.65385,4.89385 28.01871,11.0611c0.58099,0.42835 1.3459,0.60723 2.62758,1.16358c0,-2.4299 -0.0002,-4.22064 0.00003,-6.01139c0.00185,-13.99251 -0.0172,-27.98507 0.02372,-41.97746c0.00801,-2.73865 -0.68224,-6.19964 3.76005,-6.08859c4.01156,0.10027 3.48205,3.26714 3.48637,5.89389c0.0186,11.32722 0.00428,22.65449 0.00249,33.98174c-0.00075,4.73088 -0.00012,9.46175 -0.00012,15.17297c10.17517,-8.46183 21.26752,-12.1796 33.09219,-13.88187c3.36177,-0.48397 3.93608,-2.27701 3.92089,-5.12172c-0.06578,-12.3264 -0.15419,-24.65527 0.04075,-36.97889c0.05815,-3.67563 -1.39002,-4.49502 -4.70494,-4.41906c-7.99169,0.18312 -15.99187,0.16225 -23.9844,0.00657c-1.67332,-0.03259 -3.72493,-0.54905 -4.92756,-1.60844c-7.756,-6.83218 -7.69334,-6.90087 -14.59813,0.54658c-0.22227,0.23973 -0.52346,0.40627 -1.52977,0.91689z"
   fill="#52BBB1"
   style="fill:#0069a8;fill-opacity:1" />
  <path
   id="svg_193"
   d="m48.89443,77.60216c-4.1337,3.86247 -6.72126,2.97653 -7.75226,-2.36014c-1.54626,-8.00375 -5.09546,-14.91914 -10.37087,-21.14132c-1.12189,-1.32322 -0.6803,-3.97202 -0.95903,-6.0101c2.06161,0.25247 5.21516,-0.25094 6.00119,0.88455c4.00953,5.79213 7.71674,11.85198 10.88392,18.14327c1.50361,2.98677 1.56836,6.69791 2.19705,10.48374z"
   fill="#54BBB0"
   style="fill:#0069a8;fill-opacity:1" />
  <path
   id="svg_194"
   d="m80.16457,52.14539c1.48621,-1.58847 2.52737,-3.3736 4.06156,-4.06551c1.36173,-0.61412 3.91398,-0.64121 4.75795,0.22499c0.8491,0.87146 0.9729,3.86963 0.15268,4.72285c-6.55889,6.82269 -10.28922,14.88878 -12.14135,24.08133c-0.24226,1.20237 -2.84803,1.92855 -4.35908,2.87528c-0.9007,-1.52391 -2.71587,-3.15453 -2.55253,-4.55428c1.00141,-8.58203 4.53865,-16.20356 10.08077,-23.28466z"
   fill="#55BAB0"
   style="fill:#0069a8;fill-opacity:1" />
  <path
   d="m 125.4617,93.907661 v -55.44 h 8.0465 v 47.8555 h 25.102 v 7.5845 z m 40.46344,-48.3945 v -7.8155 h 8.0465 v 7.8155 z m 0,48.3945 v -41.58 h 8.0465 v 41.58 z m 48.77948,0 v -20.4435 q 0,-2.4255 -0.4235,-4.9665 -0.385,-2.5795 -1.54,-4.774 -1.1165,-2.1945 -3.1955,-3.542 -2.0405,-1.3475 -5.3515,-1.3475 -2.156,0 -4.081,0.7315 -1.925,0.693 -3.388,2.2715 -1.4245,1.5785 -2.2715,4.158 -0.8085,2.5795 -0.8085,6.2755 l -5.005,-1.8865 q 0,-5.6595 2.1175,-9.9715 2.1175,-4.3505 6.083,-6.776 3.9655,-2.4255 9.5865,-2.4255 4.312,0 7.238,1.386 2.926,1.386 4.7355,3.6575 1.848,2.233 2.8105,4.8895 0.9625,2.6565 1.309,5.1975 0.3465,2.541 0.3465,4.466 v 23.1 z m -29.2215,0 v -41.58 h 7.1995 v 12.012 h 0.9625 v 29.568 z m 64.52598,19.634999 q -3.3495,0 -6.5065,-1.0395 -3.1185,-1.0395 -5.698,-3.08 -2.5795,-2.002 -4.2735,-4.9665 l 7.4305,-3.773 q 1.3475,2.6565 3.85,3.8885 2.5025,1.232 5.2745,1.232 3.4265,0 5.852,-1.232 2.4255,-1.1935 3.6575,-3.619 1.2705,-2.425499 1.232,-6.005999 v -11.627 h 0.9625 v -30.9925 h 7.1225 v 42.6965 q 0,1.6555 -0.1155,3.157 -0.1155,1.5015 -0.4235,3.002999 -0.8855,4.1965 -3.388,6.93 -2.464,2.7335 -6.314,4.081 -3.8115,1.3475 -8.6625,1.3475 z m -0.616,-18.479999 q -5.8135,0 -10.0485,-2.8875 -4.1965,-2.8875 -6.5065,-7.854 -2.2715,-5.005 -2.2715,-11.242 0,-6.2755 2.31,-11.2035 2.31,-4.9665 6.545,-7.8155 4.2735,-2.8875 10.1255,-2.8875 5.8905,0 9.8945,2.8875 4.0425,2.849 6.083,7.8155 2.079,4.9665 2.079,11.2035 0,6.237 -2.079,11.2035 -2.079,4.9665 -6.1215,7.8925 -4.0425,2.8875 -10.01,2.8875 z m 1.1165,-7.2765 q 3.9655,0 6.468,-1.8865 2.5025,-1.8865 3.6575,-5.1975 1.155,-3.311 1.155,-7.623 0,-4.312 -1.1935,-7.623 -1.155,-3.311 -3.619,-5.159 -2.4255,-1.848 -6.1985,-1.848 -4.004,0 -6.5835,1.9635 -2.5795,1.9635 -3.85,5.2745 -1.232,3.311 -1.232,7.392 0,4.1195 1.232,7.469 1.2705,3.311 3.773,5.2745 2.541,1.9635 6.391,1.9635 z m 40.42498,6.1215 -15.092,-41.58 h 8.1235 l 11.0495,31.493 11.0495,-31.493 h 8.1235 l -15.092,41.58 z m 46.70047,1.155 q -6.237,0 -10.8185,-2.8105 -4.5815,-2.8105 -7.084,-7.7385 -2.464,-4.9665 -2.464,-11.4345 0,-6.5065 2.541,-11.4345 2.541,-4.9665 7.1225,-7.7 4.5815,-2.772 10.703,-2.772 6.237,0 10.8185,2.8105 4.5815,2.8105 7.084,7.7385 2.5025,4.928 2.5025,11.3575 0,6.5065 -2.541,11.473 -2.5025,4.928 -7.084,7.7385 -4.5815,2.772 -10.78,2.772 z m 0,-7.5845 q 5.9675,0 8.8935,-4.004 2.9645,-4.0425 2.9645,-10.395 0,-6.5065 -3.003,-10.395 -2.9645,-3.927 -8.855,-3.927 -4.0425,0 -6.6605,1.848 -2.618,1.8095 -3.8885,5.0435 -1.2705,3.1955 -1.2705,7.4305 0,6.545 3.003,10.472 3.003,3.927 8.8165,3.927 z"
   id="svg_5"
   style="font-weight:600;font-size:77px;font-family:Manrope;-inkscape-font-specification:'Manrope, Semi-Bold';fill:#30404d;stroke-width:0"
   aria-label="Lingvo" />
  <path
   d="m 367.07082,93.833618 v -55.44 h 22.407 q 0.8085,0 2.002,0.077 1.1935,0.0385 2.2715,0.231 4.62,0.7315 7.7,3.157 3.1185,2.4255 4.6585,6.1215 1.54,3.696 1.54,8.162 0,4.5045 -1.54,8.2005 -1.54,3.696 -4.6585,6.1215 -3.08,2.4255 -7.7,3.157 -1.078,0.154 -2.31,0.231 -1.1935,0.077 -1.9635,0.077 h -14.3605 v 19.9045 z m 8.0465,-27.5275 h 14.0525 q 0.77,0 1.694,-0.077 0.9625,-0.077 1.8095,-0.2695 2.464,-0.5775 3.9655,-2.1175 1.5015,-1.5785 2.156,-3.619 0.6545,-2.0405 0.6545,-4.081 0,-2.0405 -0.6545,-4.0425 -0.6545,-2.0405 -2.156,-3.5805 -1.5015,-1.5785 -3.9655,-2.156 -0.847,-0.231 -1.8095,-0.308 -0.924,-0.077 -1.694,-0.077 h -14.0525 z m 50.70452,28.6825 q -4.62,0 -7.7385,-1.694 -3.1185,-1.7325 -4.7355,-4.543 -1.5785,-2.849 -1.5785,-6.237 0,-3.157 1.1165,-5.544 1.1165,-2.387 3.311,-4.0425 2.1945,-1.694 5.39,-2.7335 2.772,-0.8085 6.2755,-1.4245 3.5035,-0.616 7.3535,-1.155 3.8885,-0.539 7.7,-1.078 l -2.926,1.617 q 0.077,-4.8895 -2.079,-7.238 -2.1175,-2.387 -7.315,-2.387 -3.2725,0 -6.006,1.54 -2.7335,1.5015 -3.8115,5.005 l -7.5075,-2.31 q 1.54,-5.3515 5.852,-8.5085 4.3505,-3.157 11.55,-3.157 5.5825,0 9.702,1.925 4.158,1.8865 6.083,6.006 1.001,2.0405 1.232,4.312 0.231,2.2715 0.231,4.8895 v 25.6025 h -7.1225 v -9.5095 l 1.386,1.232 q -2.5795,4.774 -6.5835,7.1225 -3.9655,2.31 -9.779,2.31 z m 1.4245,-6.5835 q 3.4265,0 5.8905,-1.1935 2.464,-1.232 3.9655,-3.1185 1.5015,-1.8865 1.9635,-3.927 0.6545,-1.848 0.7315,-4.158 0.1155,-2.31 0.1155,-3.696 l 2.618,0.9625 q -3.8115,0.5775 -6.93,1.0395 -3.1185,0.462 -5.6595,0.924 -2.5025,0.4235 -4.466,1.0395 -1.6555,0.5775 -2.9645,1.386 -1.2705,0.8085 -2.0405,1.9635 -0.7315,1.155 -0.7315,2.8105 0,1.617 0.8085,3.003 0.8085,1.3475 2.464,2.156 1.6555,0.8085 4.235,0.8085 z m 31.4545,5.4285 v -56.595 h 8.0465 v 56.595 z"
   id="svg_1"
   style="font-weight:600;font-size:77px;font-family:Manrope;-inkscape-font-specification:'Manrope, Semi-Bold';fill:#0069a8;stroke-width:0;fill-opacity:1"
   aria-label="Pal" />
 </g>

</svg>
